# xmcd
#
# Track frame offsets:
#	150
#	16379
#	31700
#	46359
#	62141
#	76906
#	91085
#	106753
#	121790
#	136676
#	149208
#	169300
#	185983
#	201355
#	214445
#	227611
#	239312
#	253270
#	265041
#	274565
#	287727
#	299054
#	314812
#	329456
#
# Disc length: 4548 seconds
#
# Revision: 0
# Processed by: cddbd v1.5.2PL0 Copyright (c) Steve Scherf et al.
# Submitted via: EasyCDDAExtractor 12.1.0.1
#
DISCID=7411c218
DTITLE=Glenn Miller - The Very Best Of ...
DYEAR=2010
DGENRE=Gospel
TTITLE0=In The Mood
TTITLE1=Moonlight Serenade
TTITLE2=Don´T Sit Under The Apple Tree (With Anyone Else But Me)
TTITLE3=Tuxedo Junction
TTITLE4=A String Of Pearls
TTITLE5=Pennsylvania 6-5000
TTITLE6=Chattanooga Choo-Choo
TTITLE7=American Patrol
TTITLE8=(I´Ve Got A Gal In) Kalamazoo
TTITLE9=On A Little Street In Singapore
TTITLE10=The St. Louis Blues March
TTITLE11=A Nightingale Sang In Berkeley Square
TTITLE12=Star Dust
TTITLE13=Little Brown Jug
TTITLE14=When You Wish Up On A Star
TTITLE15=The Woodpecker Son
TTITLE16=G.I. Jive (With The Army Air Force Band)
TTITLE17=Fools Rush In
TTITLE18=Over  There (With The Army Air Force Band)
TTITLE19=Blueberry Hill
TTITLE20=Over The Rainbow
TTITLE21=Serenade In Blue
TTITLE22=When Johnny Comes Marching Home
TTITLE23=In The Mood (Featuring Jodie Prenger) - Bonus Track
EXTD=
EXTT0=
EXTT1=
EXTT2=
EXTT3=
EXTT4=
EXTT5=
EXTT6=
EXTT7=
EXTT8=
EXTT9=
EXTT10=
EXTT11=
EXTT12=
EXTT13=
EXTT14=
EXTT15=
EXTT16=
EXTT17=
EXTT18=
EXTT19=
EXTT20=
EXTT21=
EXTT22=
EXTT23=
PLAYORDER=
